<svg width="85" height="101" viewBox="0 0 85 101" fill="none" xmlns="http://www.w3.org/2000/svg">
<mask id="path-1-outside-1_12_16" maskUnits="userSpaceOnUse" x="-12.1318" y="-4.2986" width="105.416" height="106.247" fill="black">
<rect fill="white" x="-12.1318" y="-4.2986" width="105.416" height="106.247"/>
<path d="M83.0015 35.4205C82.2651 31.0729 80.6439 26.9177 78.2295 23.1906C75.8631 19.692 72.4661 17.1022 69.6804 13.9605C66.8946 10.8187 65.8143 6.55475 62.4781 3.96503C59.1419 1.37531 54.8473 1.30019 50.8594 1.56383C46.4956 1.81922 41.8415 2.15933 37.7839 3.96403C33.5574 5.85356 31.2911 9.37907 28.4889 12.7183C28.3119 12.8389 28.1606 12.9911 28.0436 13.1665L27.978 13.264C25.3815 16.0477 21.9719 17.7886 18.784 19.8428C15.4485 21.9883 12.5872 24.6978 11.1582 28.3327C8.47507 35.236 10.9048 43.0338 7.69047 49.7792C5.97987 53.3619 2.80154 56.1797 1.61739 60.018C0.280895 64.3646 1.45281 68.7593 3.49839 72.7251C4.57101 74.7232 5.75692 76.6625 7.05088 78.5343C6.016 81.4226 5.1601 84.3649 4.48772 87.3456C3.83772 90.8526 3.61025 94.4141 3.80979 97.9597C3.88611 98.4084 4.14312 98.8081 4.52576 99.0733C4.9084 99.3385 5.38625 99.4481 5.85694 99.3786C6.32377 99.2947 6.74127 99.0418 7.02234 98.6725C7.30341 98.3032 7.42634 97.8461 7.36546 97.3966C7.2201 94.4605 7.38777 91.5138 7.86586 88.6021C8.37369 86.06 9.06593 83.5527 9.93753 81.0984C12.5153 82.5601 15.6062 82.9758 18.5342 82.2546C23.127 81.2076 26.6684 78.0611 30.2301 75.2988C31.7954 74.0015 33.4998 72.8679 35.3138 71.9178L35.5434 71.833C35.6579 71.7815 35.7667 71.7188 35.8681 71.646L36.1129 71.5298C38.192 70.7113 40.4401 70.3851 42.6649 70.5792C46.9933 70.8039 51.5157 71.5499 55.453 69.2413C58.7789 67.2911 60.7493 64.0061 63.2949 61.2208C66.2518 57.9636 70.4315 57.1853 74.3401 55.4624C75.0012 55.1621 75.6403 54.8182 76.2526 54.4332L76.7575 54.1692C76.8437 54.1155 76.9221 54.051 76.9904 53.9774C79.5071 52.2562 81.4191 49.8398 82.4654 47.058C83.8689 43.2624 83.7242 39.3441 83.0015 35.4205ZM79.7139 36.9096C77.3264 36.2919 75.1097 35.1941 73.21 33.6886C70.523 31.8095 68.1041 29.578 65.3332 27.809C63.1648 26.4455 60.6936 25.5784 58.1077 25.2736C62.2958 23.2041 66.735 21.6517 71.3176 20.654C74.0378 23.2296 76.1876 26.3062 77.6412 29.704C78.5808 32.0401 79.2669 34.4656 79.6888 36.9426L79.7139 36.9096ZM63.5194 11.179C64.8806 13.5637 66.55 15.7716 68.4888 17.7515C60.2202 19.9759 52.4689 23.7375 45.6795 28.8205C45.0906 24.4001 46.1037 19.8988 48.5499 16.0677C50.9519 12.3755 54.8907 9.43723 55.9294 5.12813C57.5394 5.29036 59.0653 5.87641 60.3386 6.82163C61.6856 8.05947 62.7658 9.53923 63.5194 11.179ZM37.9852 7.72812C39.7874 6.74202 41.7585 6.07864 43.8006 5.7709C46.5942 5.24647 49.4255 4.94704 52.2648 4.87575C51.5997 6.55854 50.6039 8.10704 49.3321 9.43641C47.5422 11.3742 45.9623 13.4805 44.6174 15.7222C42.0266 20.5273 41.2641 26.0282 42.4626 31.2667C38.8823 34.1595 35.5102 37.282 32.3703 40.6121C31.3987 41.6375 30.4529 42.6976 29.5071 43.7576C29.2013 40.165 27.7025 36.5193 26.8936 33.0741C26.2802 29.9675 26.4231 26.7574 27.3112 23.6924C27.9738 20.7507 29.1737 17.9378 30.8551 15.3842C31.8709 14.2549 32.7701 13.0279 33.7147 11.8325C34.8463 10.2119 36.2975 8.81711 37.9852 7.72812ZM13.3689 35.0032C13.6653 31.7607 14.3747 28.5689 16.6609 25.999C18.947 23.429 21.8182 21.9962 24.5966 20.2973C24.4413 20.7867 24.282 21.3155 24.1419 21.7734C23.1775 24.767 22.7543 27.89 22.8909 31.0064C23.1988 34.3566 24.5802 37.5173 25.3661 40.7531C25.9918 43.2976 26.5601 46.3741 25.0513 48.8016C24.9729 48.9192 24.9113 49.0463 24.8681 49.1792C22.4625 52.1458 20.151 55.1942 17.9259 58.2774L16.8834 59.7498C16.8332 58.5377 16.7236 57.3349 16.5564 56.1509C16.0285 51.939 14.7685 47.8509 12.8284 44.0558C13.1508 41.0416 13.0875 38.0206 13.3689 35.0032ZM4.68325 65.1198C4.2021 61.187 6.33888 58.1856 8.54659 55.0567C9.69707 53.4438 10.6491 51.7104 11.3835 49.8915C12.0924 52.0042 12.6089 54.1741 12.9271 56.3771C13.5519 59.6962 13.4341 63.1142 12.5817 66.406C11.0612 68.9932 9.7234 71.6736 8.57743 74.4288C6.76616 71.5588 5.09139 68.4638 4.68325 65.1198ZM14.9996 79.1152C13.5976 79.0442 12.2649 78.5342 11.2058 77.6632C11.9894 75.4822 12.9052 73.3453 13.9484 71.2637C14.1011 70.949 14.2765 70.6501 14.4405 70.3433C17.2591 71.9969 20.3735 73.1439 23.6333 73.7291C24.5224 73.8599 25.4224 73.9182 26.3237 73.9034L25.4288 74.6455C22.4019 77.0132 18.9444 79.4104 14.9996 79.1152ZM48.9464 67.4733C44.6688 67.5698 40.5125 66.5141 36.292 67.8023C35.443 68.0759 34.616 68.4109 33.8183 68.8042C30.7817 70.2149 27.3938 70.7515 24.0698 70.3482C21.2582 69.8133 18.5801 68.7867 16.1687 67.3194C17.2187 65.5747 18.337 63.8772 19.4992 62.2019C20.6614 60.5265 21.976 58.6624 23.307 56.9022C23.4558 56.8405 23.6001 56.7691 23.7389 56.6886C26.3608 55.0241 29.9263 56.0572 32.5395 57.0862C35.6041 58.4634 38.5446 60.0767 41.3324 61.9104C44.8209 63.9918 49.2023 66.2126 53.464 66.3995C52.0586 67.12 50.4912 67.4915 48.9069 67.4796L48.9464 67.4733ZM58.4107 61.5779C58.3075 61.6313 58.2089 61.6922 58.1155 61.7603C55.3203 63.8008 51.7111 62.9392 48.755 61.7903C45.6414 60.3999 42.6564 58.7642 39.8301 56.8998C36.073 54.6576 31.3071 52.2459 26.7308 52.4381C29.9166 48.3506 33.356 44.4492 37.03 40.7553L37.2177 40.7255C40.7866 39.4147 44.6969 40.7708 47.6542 42.6942C51.0302 44.8322 53.6591 47.8148 56.6628 50.3506C59.2346 52.5496 62.2547 54.2164 65.5383 55.2489L65.3977 55.3196C62.4124 56.7995 60.4322 59.1274 58.3711 61.5842L58.4107 61.5779ZM76.2294 50.1954C75.5238 50.8416 74.7333 51.3966 73.8787 51.846C71.1939 53.1137 67.702 52.4175 65.0979 51.4453C61.5195 50.0753 58.7574 47.5302 56.0407 45.0167C51.9707 41.2456 46.9459 37.1996 41.2524 36.7941C43.792 34.5366 46.4706 32.4276 49.2731 30.4786C49.849 30.0872 50.4264 29.7052 51.0151 29.3311L51.183 29.3045C53.3263 28.326 55.9302 28.4655 58.1941 28.8235C60.8183 29.3116 63.2557 30.4473 65.2667 32.1191C67.679 33.9255 69.9132 35.886 72.5188 37.5069C74.7665 38.9133 77.2808 40.2775 79.9871 40.488C80.0049 44.1165 79.0198 47.6134 76.2294 50.1954Z"/>
</mask>
<path d="M83.0015 35.4205C82.2651 31.0729 80.6439 26.9177 78.2295 23.1906C75.8631 19.692 72.4661 17.1022 69.6804 13.9605C66.8946 10.8187 65.8143 6.55475 62.4781 3.96503C59.1419 1.37531 54.8473 1.30019 50.8594 1.56383C46.4956 1.81922 41.8415 2.15933 37.7839 3.96403C33.5574 5.85356 31.2911 9.37907 28.4889 12.7183C28.3119 12.8389 28.1606 12.9911 28.0436 13.1665L27.978 13.264C25.3815 16.0477 21.9719 17.7886 18.784 19.8428C15.4485 21.9883 12.5872 24.6978 11.1582 28.3327C8.47507 35.236 10.9048 43.0338 7.69047 49.7792C5.97987 53.3619 2.80154 56.1797 1.61739 60.018C0.280895 64.3646 1.45281 68.7593 3.49839 72.7251C4.57101 74.7232 5.75692 76.6625 7.05088 78.5343C6.016 81.4226 5.1601 84.3649 4.48772 87.3456C3.83772 90.8526 3.61025 94.4141 3.80979 97.9597C3.88611 98.4084 4.14312 98.8081 4.52576 99.0733C4.9084 99.3385 5.38625 99.4481 5.85694 99.3786C6.32377 99.2947 6.74127 99.0418 7.02234 98.6725C7.30341 98.3032 7.42634 97.8461 7.36546 97.3966C7.2201 94.4605 7.38777 91.5138 7.86586 88.6021C8.37369 86.06 9.06593 83.5527 9.93753 81.0984C12.5153 82.5601 15.6062 82.9758 18.5342 82.2546C23.127 81.2076 26.6684 78.0611 30.2301 75.2988C31.7954 74.0015 33.4998 72.8679 35.3138 71.9178L35.5434 71.833C35.6579 71.7815 35.7667 71.7188 35.8681 71.646L36.1129 71.5298C38.192 70.7113 40.4401 70.3851 42.6649 70.5792C46.9933 70.8039 51.5157 71.5499 55.453 69.2413C58.7789 67.2911 60.7493 64.0061 63.2949 61.2208C66.2518 57.9636 70.4315 57.1853 74.3401 55.4624C75.0012 55.1621 75.6403 54.8182 76.2526 54.4332L76.7575 54.1692C76.8437 54.1155 76.9221 54.051 76.9904 53.9774C79.5071 52.2562 81.4191 49.8398 82.4654 47.058C83.8689 43.2624 83.7242 39.3441 83.0015 35.4205ZM79.7139 36.9096C77.3264 36.2919 75.1097 35.1941 73.21 33.6886C70.523 31.8095 68.1041 29.578 65.3332 27.809C63.1648 26.4455 60.6936 25.5784 58.1077 25.2736C62.2958 23.2041 66.735 21.6517 71.3176 20.654C74.0378 23.2296 76.1876 26.3062 77.6412 29.704C78.5808 32.0401 79.2669 34.4656 79.6888 36.9426L79.7139 36.9096ZM63.5194 11.179C64.8806 13.5637 66.55 15.7716 68.4888 17.7515C60.2202 19.9759 52.4689 23.7375 45.6795 28.8205C45.0906 24.4001 46.1037 19.8988 48.5499 16.0677C50.9519 12.3755 54.8907 9.43723 55.9294 5.12813C57.5394 5.29036 59.0653 5.87641 60.3386 6.82163C61.6856 8.05947 62.7658 9.53923 63.5194 11.179ZM37.9852 7.72812C39.7874 6.74202 41.7585 6.07864 43.8006 5.7709C46.5942 5.24647 49.4255 4.94704 52.2648 4.87575C51.5997 6.55854 50.6039 8.10704 49.3321 9.43641C47.5422 11.3742 45.9623 13.4805 44.6174 15.7222C42.0266 20.5273 41.2641 26.0282 42.4626 31.2667C38.8823 34.1595 35.5102 37.282 32.3703 40.6121C31.3987 41.6375 30.4529 42.6976 29.5071 43.7576C29.2013 40.165 27.7025 36.5193 26.8936 33.0741C26.2802 29.9675 26.4231 26.7574 27.3112 23.6924C27.9738 20.7507 29.1737 17.9378 30.8551 15.3842C31.8709 14.2549 32.7701 13.0279 33.7147 11.8325C34.8463 10.2119 36.2975 8.81711 37.9852 7.72812ZM13.3689 35.0032C13.6653 31.7607 14.3747 28.5689 16.6609 25.999C18.947 23.429 21.8182 21.9962 24.5966 20.2973C24.4413 20.7867 24.282 21.3155 24.1419 21.7734C23.1775 24.767 22.7543 27.89 22.8909 31.0064C23.1988 34.3566 24.5802 37.5173 25.3661 40.7531C25.9918 43.2976 26.5601 46.3741 25.0513 48.8016C24.9729 48.9192 24.9113 49.0463 24.8681 49.1792C22.4625 52.1458 20.151 55.1942 17.9259 58.2774L16.8834 59.7498C16.8332 58.5377 16.7236 57.3349 16.5564 56.1509C16.0285 51.939 14.7685 47.8509 12.8284 44.0558C13.1508 41.0416 13.0875 38.0206 13.3689 35.0032ZM4.68325 65.1198C4.2021 61.187 6.33888 58.1856 8.54659 55.0567C9.69707 53.4438 10.6491 51.7104 11.3835 49.8915C12.0924 52.0042 12.6089 54.1741 12.9271 56.3771C13.5519 59.6962 13.4341 63.1142 12.5817 66.406C11.0612 68.9932 9.7234 71.6736 8.57743 74.4288C6.76616 71.5588 5.09139 68.4638 4.68325 65.1198ZM14.9996 79.1152C13.5976 79.0442 12.2649 78.5342 11.2058 77.6632C11.9894 75.4822 12.9052 73.3453 13.9484 71.2637C14.1011 70.949 14.2765 70.6501 14.4405 70.3433C17.2591 71.9969 20.3735 73.1439 23.6333 73.7291C24.5224 73.8599 25.4224 73.9182 26.3237 73.9034L25.4288 74.6455C22.4019 77.0132 18.9444 79.4104 14.9996 79.1152ZM48.9464 67.4733C44.6688 67.5698 40.5125 66.5141 36.292 67.8023C35.443 68.0759 34.616 68.4109 33.8183 68.8042C30.7817 70.2149 27.3938 70.7515 24.0698 70.3482C21.2582 69.8133 18.5801 68.7867 16.1687 67.3194C17.2187 65.5747 18.337 63.8772 19.4992 62.2019C20.6614 60.5265 21.976 58.6624 23.307 56.9022C23.4558 56.8405 23.6001 56.7691 23.7389 56.6886C26.3608 55.0241 29.9263 56.0572 32.5395 57.0862C35.6041 58.4634 38.5446 60.0767 41.3324 61.9104C44.8209 63.9918 49.2023 66.2126 53.464 66.3995C52.0586 67.12 50.4912 67.4915 48.9069 67.4796L48.9464 67.4733ZM58.4107 61.5779C58.3075 61.6313 58.2089 61.6922 58.1155 61.7603C55.3203 63.8008 51.7111 62.9392 48.755 61.7903C45.6414 60.3999 42.6564 58.7642 39.8301 56.8998C36.073 54.6576 31.3071 52.2459 26.7308 52.4381C29.9166 48.3506 33.356 44.4492 37.03 40.7553L37.2177 40.7255C40.7866 39.4147 44.6969 40.7708 47.6542 42.6942C51.0302 44.8322 53.6591 47.8148 56.6628 50.3506C59.2346 52.5496 62.2547 54.2164 65.5383 55.2489L65.3977 55.3196C62.4124 56.7995 60.4322 59.1274 58.3711 61.5842L58.4107 61.5779ZM76.2294 50.1954C75.5238 50.8416 74.7333 51.3966 73.8787 51.846C71.1939 53.1137 67.702 52.4175 65.0979 51.4453C61.5195 50.0753 58.7574 47.5302 56.0407 45.0167C51.9707 41.2456 46.9459 37.1996 41.2524 36.7941C43.792 34.5366 46.4706 32.4276 49.2731 30.4786C49.849 30.0872 50.4264 29.7052 51.0151 29.3311L51.183 29.3045C53.3263 28.326 55.9302 28.4655 58.1941 28.8235C60.8183 29.3116 63.2557 30.4473 65.2667 32.1191C67.679 33.9255 69.9132 35.886 72.5188 37.5069C74.7665 38.9133 77.2808 40.2775 79.9871 40.488C80.0049 44.1165 79.0198 47.6134 76.2294 50.1954Z" fill="black"/>
<path d="M83.0015 35.4205C82.2651 31.0729 80.6439 26.9177 78.2295 23.1906C75.8631 19.692 72.4661 17.1022 69.6804 13.9605C66.8946 10.8187 65.8143 6.55475 62.4781 3.96503C59.1419 1.37531 54.8473 1.30019 50.8594 1.56383C46.4956 1.81922 41.8415 2.15933 37.7839 3.96403C33.5574 5.85356 31.2911 9.37907 28.4889 12.7183C28.3119 12.8389 28.1606 12.9911 28.0436 13.1665L27.978 13.264C25.3815 16.0477 21.9719 17.7886 18.784 19.8428C15.4485 21.9883 12.5872 24.6978 11.1582 28.3327C8.47507 35.236 10.9048 43.0338 7.69047 49.7792C5.97987 53.3619 2.80154 56.1797 1.61739 60.018C0.280895 64.3646 1.45281 68.7593 3.49839 72.7251C4.57101 74.7232 5.75692 76.6625 7.05088 78.5343C6.016 81.4226 5.1601 84.3649 4.48772 87.3456C3.83772 90.8526 3.61025 94.4141 3.80979 97.9597C3.88611 98.4084 4.14312 98.8081 4.52576 99.0733C4.9084 99.3385 5.38625 99.4481 5.85694 99.3786C6.32377 99.2947 6.74127 99.0418 7.02234 98.6725C7.30341 98.3032 7.42634 97.8461 7.36546 97.3966C7.2201 94.4605 7.38777 91.5138 7.86586 88.6021C8.37369 86.06 9.06593 83.5527 9.93753 81.0984C12.5153 82.5601 15.6062 82.9758 18.5342 82.2546C23.127 81.2076 26.6684 78.0611 30.2301 75.2988C31.7954 74.0015 33.4998 72.8679 35.3138 71.9178L35.5434 71.833C35.6579 71.7815 35.7667 71.7188 35.8681 71.646L36.1129 71.5298C38.192 70.7113 40.4401 70.3851 42.6649 70.5792C46.9933 70.8039 51.5157 71.5499 55.453 69.2413C58.7789 67.2911 60.7493 64.0061 63.2949 61.2208C66.2518 57.9636 70.4315 57.1853 74.3401 55.4624C75.0012 55.1621 75.6403 54.8182 76.2526 54.4332L76.7575 54.1692C76.8437 54.1155 76.9221 54.051 76.9904 53.9774C79.5071 52.2562 81.4191 49.8398 82.4654 47.058C83.8689 43.2624 83.7242 39.3441 83.0015 35.4205ZM79.7139 36.9096C77.3264 36.2919 75.1097 35.1941 73.21 33.6886C70.523 31.8095 68.1041 29.578 65.3332 27.809C63.1648 26.4455 60.6936 25.5784 58.1077 25.2736C62.2958 23.2041 66.735 21.6517 71.3176 20.654C74.0378 23.2296 76.1876 26.3062 77.6412 29.704C78.5808 32.0401 79.2669 34.4656 79.6888 36.9426L79.7139 36.9096ZM63.5194 11.179C64.8806 13.5637 66.55 15.7716 68.4888 17.7515C60.2202 19.9759 52.4689 23.7375 45.6795 28.8205C45.0906 24.4001 46.1037 19.8988 48.5499 16.0677C50.9519 12.3755 54.8907 9.43723 55.9294 5.12813C57.5394 5.29036 59.0653 5.87641 60.3386 6.82163C61.6856 8.05947 62.7658 9.53923 63.5194 11.179ZM37.9852 7.72812C39.7874 6.74202 41.7585 6.07864 43.8006 5.7709C46.5942 5.24647 49.4255 4.94704 52.2648 4.87575C51.5997 6.55854 50.6039 8.10704 49.3321 9.43641C47.5422 11.3742 45.9623 13.4805 44.6174 15.7222C42.0266 20.5273 41.2641 26.0282 42.4626 31.2667C38.8823 34.1595 35.5102 37.282 32.3703 40.6121C31.3987 41.6375 30.4529 42.6976 29.5071 43.7576C29.2013 40.165 27.7025 36.5193 26.8936 33.0741C26.2802 29.9675 26.4231 26.7574 27.3112 23.6924C27.9738 20.7507 29.1737 17.9378 30.8551 15.3842C31.8709 14.2549 32.7701 13.0279 33.7147 11.8325C34.8463 10.2119 36.2975 8.81711 37.9852 7.72812ZM13.3689 35.0032C13.6653 31.7607 14.3747 28.5689 16.6609 25.999C18.947 23.429 21.8182 21.9962 24.5966 20.2973C24.4413 20.7867 24.282 21.3155 24.1419 21.7734C23.1775 24.767 22.7543 27.89 22.8909 31.0064C23.1988 34.3566 24.5802 37.5173 25.3661 40.7531C25.9918 43.2976 26.5601 46.3741 25.0513 48.8016C24.9729 48.9192 24.9113 49.0463 24.8681 49.1792C22.4625 52.1458 20.151 55.1942 17.9259 58.2774L16.8834 59.7498C16.8332 58.5377 16.7236 57.3349 16.5564 56.1509C16.0285 51.939 14.7685 47.8509 12.8284 44.0558C13.1508 41.0416 13.0875 38.0206 13.3689 35.0032ZM4.68325 65.1198C4.2021 61.187 6.33888 58.1856 8.54659 55.0567C9.69707 53.4438 10.6491 51.7104 11.3835 49.8915C12.0924 52.0042 12.6089 54.1741 12.9271 56.3771C13.5519 59.6962 13.4341 63.1142 12.5817 66.406C11.0612 68.9932 9.7234 71.6736 8.57743 74.4288C6.76616 71.5588 5.09139 68.4638 4.68325 65.1198ZM14.9996 79.1152C13.5976 79.0442 12.2649 78.5342 11.2058 77.6632C11.9894 75.4822 12.9052 73.3453 13.9484 71.2637C14.1011 70.949 14.2765 70.6501 14.4405 70.3433C17.2591 71.9969 20.3735 73.1439 23.6333 73.7291C24.5224 73.8599 25.4224 73.9182 26.3237 73.9034L25.4288 74.6455C22.4019 77.0132 18.9444 79.4104 14.9996 79.1152ZM48.9464 67.4733C44.6688 67.5698 40.5125 66.5141 36.292 67.8023C35.443 68.0759 34.616 68.4109 33.8183 68.8042C30.7817 70.2149 27.3938 70.7515 24.0698 70.3482C21.2582 69.8133 18.5801 68.7867 16.1687 67.3194C17.2187 65.5747 18.337 63.8772 19.4992 62.2019C20.6614 60.5265 21.976 58.6624 23.307 56.9022C23.4558 56.8405 23.6001 56.7691 23.7389 56.6886C26.3608 55.0241 29.9263 56.0572 32.5395 57.0862C35.6041 58.4634 38.5446 60.0767 41.3324 61.9104C44.8209 63.9918 49.2023 66.2126 53.464 66.3995C52.0586 67.12 50.4912 67.4915 48.9069 67.4796L48.9464 67.4733ZM58.4107 61.5779C58.3075 61.6313 58.2089 61.6922 58.1155 61.7603C55.3203 63.8008 51.7111 62.9392 48.755 61.7903C45.6414 60.3999 42.6564 58.7642 39.8301 56.8998C36.073 54.6576 31.3071 52.2459 26.7308 52.4381C29.9166 48.3506 33.356 44.4492 37.03 40.7553L37.2177 40.7255C40.7866 39.4147 44.6969 40.7708 47.6542 42.6942C51.0302 44.8322 53.6591 47.8148 56.6628 50.3506C59.2346 52.5496 62.2547 54.2164 65.5383 55.2489L65.3977 55.3196C62.4124 56.7995 60.4322 59.1274 58.3711 61.5842L58.4107 61.5779ZM76.2294 50.1954C75.5238 50.8416 74.7333 51.3966 73.8787 51.846C71.1939 53.1137 67.702 52.4175 65.0979 51.4453C61.5195 50.0753 58.7574 47.5302 56.0407 45.0167C51.9707 41.2456 46.9459 37.1996 41.2524 36.7941C43.792 34.5366 46.4706 32.4276 49.2731 30.4786C49.849 30.0872 50.4264 29.7052 51.0151 29.3311L51.183 29.3045C53.3263 28.326 55.9302 28.4655 58.1941 28.8235C60.8183 29.3116 63.2557 30.4473 65.2667 32.1191C67.679 33.9255 69.9132 35.886 72.5188 37.5069C74.7665 38.9133 77.2808 40.2775 79.9871 40.488C80.0049 44.1165 79.0198 47.6134 76.2294 50.1954Z" stroke="black" stroke-width="2" mask="url(#path-1-outside-1_12_16)"/>
</svg>
