<svg width="96" height="88" viewBox="0 0 96 88" fill="none" xmlns="http://www.w3.org/2000/svg">
<g clip-path="url(#clip0_121_143)">
<path d="M86.0288 68.4506C88.8966 65.7763 92.608 63.1197 92.9284 58.8296C95.1133 56.7922 95.6538 49.9042 95.357 47.004C94.6518 40.1139 93.349 33.0382 91.5925 26.3171C88.7789 15.5517 71.8493 1.76131 60.8167 0.83743C48.1746 -0.221227 30.7026 -0.256225 20.2904 7.82142C17.3862 10.0744 15.0041 14.3286 12.5533 17.161C10.3821 19.6702 8.88047 22.4746 6.42091 24.7681C3.23888 27.7354 2.09109 33.0369 0.669703 36.9773C-1.34726 42.5689 4.54966 46.0622 6.00574 51.9495C7.24231 56.9492 7.55632 63.9447 10.8496 67.3806C15.487 72.2187 21.2627 75.9792 26.4462 80.2209C28.7551 82.1102 31.323 82.4115 33.7108 84.1878C35.2686 85.3467 37.3848 87.0556 39.2697 87.6207C40.3781 87.953 42.0579 87.1745 43.138 87.0824C45.8561 86.8506 48.6046 87.1239 51.3299 87.2337C55.3286 87.3948 59.6574 87.5275 63.5746 86.6747C67.5886 85.8008 71.2097 83.332 74.1324 80.6065C78.2836 76.7355 81.8627 72.3356 86.0288 68.4506Z" fill="black" fill-opacity="0.2"/>
<path d="M31.6564 26.3062C31.9624 25.8344 33.3552 24.4057 33.8663 24.4057C35.4732 24.1403 36.823 22.8504 38.1224 21.9489C39.4185 21.0498 41.2031 19.4705 42.7058 19.0982C44.431 18.6707 43.5187 19.7248 42.9163 20.6047C42.19 21.6655 41.6837 22.8069 41.0221 23.8842C40.1099 25.3694 39.0836 26.7253 38.4147 28.3458C37.9405 29.4945 37.7575 31.1391 37.0233 32.1236C36.1857 33.2466 36.3919 35.2954 36.3919 36.6083C36.3919 38.2468 36.377 39.8228 36.6491 41.4407C36.9426 43.1859 37.7075 44.7672 38.2861 46.4237C38.7475 47.745 39.8979 49.4478 40.8233 50.4797C41.9176 51.6997 42.7986 53.0237 44.2259 53.933C45.756 54.9079 47.4546 55.3694 49.0315 56.216C50.9222 57.231 53.0611 58.0339 55.0999 58.7075C57.077 59.3607 59.1131 59.5675 61.1099 60.0749C62.6802 60.474 64.4524 60.2835 66.0675 60.2835C67.1471 60.2835 70.3087 59.8977 69.3063 60.2951C68.6217 60.5665 67.9032 61.6611 67.3303 62.1608C66.4169 62.9574 64.9639 63.1889 63.9161 63.8064C61.5986 65.1721 58.9505 65.7069 56.2692 65.7069C51.3531 65.7069 46.6558 65.6624 42.0511 63.7832C40.9809 63.3465 40.0681 62.6934 38.9993 62.2651C37.4715 61.653 35.7974 61.0172 34.7549 59.6577C34.148 58.8663 33.2847 58.2688 32.7087 57.4443C32.2751 56.8236 32.0933 56.0464 31.5395 55.4975C29.724 53.6982 29.1377 50.943 28.0902 48.7182C27.1325 46.6844 26.5 44.5523 26.5 42.2982C26.5 39.7353 27.2673 37.3489 27.3419 34.8353C27.3571 34.3222 27.8542 33.9061 27.9733 33.3751C28.0896 32.8565 28.2108 32.3222 28.3942 31.8223C28.7468 30.8613 29.3751 29.9192 29.8674 28.9947C30.3722 28.0468 31.0774 27.1989 31.6564 26.3062Z" fill="white" fill-opacity="0.9"/>
<path d="M56.9142 25.7501V24.8384C57.1024 25.6612 57.2733 26.5418 56.9653 27.025C56.9604 27.0328 56.9554 27.0405 56.9503 27.0481C57.2006 27.4778 58.2847 27.7749 58.6304 27.7749C59.7605 27.7749 57.7029 27.9102 57.7029 28.7123V30.3435C57.7029 31.0614 57.6531 31.8085 57.6531 30.7836C57.6531 29.3185 56.8261 28.83 55.8918 28.4874C55.4188 28.3139 54.8215 28.4499 54.3362 28.4499C53.2913 28.4499 53.7001 28.3647 54.4239 28.2718C55.2226 28.1692 56.4025 27.8792 56.9503 27.0481C56.9423 27.0343 56.9351 27.0203 56.9288 27.0062C56.9235 26.9944 56.9187 26.9818 56.9142 26.9686C56.8154 26.6755 56.9142 26.0679 56.9142 25.7501Z" fill="white" fill-opacity="0.9"/>
<path d="M56.9142 27.1C56.9142 26.2657 56.9142 25.4314 56.9142 24.5971C56.9142 24.5862 56.9142 25.4543 56.9142 25.7501C56.9142 26.0823 56.8062 26.7309 56.9288 27.0062C57.1301 27.4584 58.2736 27.7749 58.6304 27.7749C59.7605 27.7749 57.7029 27.9102 57.7029 28.7123C57.7029 29.256 57.7029 29.7998 57.7029 30.3435C57.7029 31.0614 57.6531 31.8085 57.6531 30.7836C57.6531 29.3185 56.8261 28.83 55.8918 28.4874C55.4188 28.3139 54.8215 28.4499 54.3362 28.4499C53.2913 28.4499 53.7001 28.3647 54.4239 28.2718C55.23 28.1683 56.4243 27.8738 56.9653 27.025C57.4819 26.2146 56.6513 24.2859 56.6513 23.3878" stroke="white" stroke-opacity="0.9" stroke-width="1.7" stroke-linecap="round"/>
<path d="M64.1582 38.1626C64.7921 37.9796 65.0109 37.5396 65.0518 37.0067C65.1839 37.1796 65.333 37.3152 65.559 37.4347C65.8642 37.5959 66.8672 37.496 66.8672 38.0716C66.8672 38.2592 66.3924 38.1886 66.2884 38.1886C65.9854 38.1886 65.9558 38.378 65.7443 38.5395C65.4541 38.7611 65.3075 38.7776 65.1654 39.1764C65.063 39.464 65.2767 40.0898 64.8297 40.0603C64.6827 40.0506 64.6857 39.4886 64.6444 39.3324C64.5474 38.9649 64.5366 38.9275 64.3087 38.6565C63.8873 38.1556 62.4795 38.4225 62.4795 38.4225C62.4795 38.4225 62.9953 38.1886 63.2667 38.1886C63.546 38.1886 63.8866 38.241 64.1582 38.1626Z" fill="white" fill-opacity="0.9"/>
<path d="M64.8297 34.796C64.8688 35.9388 65.6254 37.739 64.1582 38.1626C63.8866 38.241 63.546 38.1886 63.2667 38.1886C62.9953 38.1886 62.4795 38.4225 62.4795 38.4225C62.4795 38.4225 63.8873 38.1556 64.3087 38.6565C64.5366 38.9275 64.5474 38.9649 64.6444 39.3324C64.6857 39.4886 64.6827 40.0506 64.8297 40.0603C65.2767 40.0898 65.063 39.464 65.1654 39.1764C65.3075 38.7776 65.4541 38.7611 65.7443 38.5395C65.9558 38.378 65.9854 38.1886 66.2884 38.1886C66.3924 38.1886 66.8672 38.2592 66.8672 38.0716C66.8672 37.496 65.8642 37.5959 65.559 37.4347C65.2032 37.2467 65.0379 37.0185 64.8297 36.6678" stroke="white" stroke-opacity="0.9" stroke-width="1.3" stroke-linecap="round"/>
<path d="M54.528 43.3795C55.1706 43.1991 55.3925 42.7654 55.4339 42.2402C55.5679 42.4107 55.719 42.5443 55.9482 42.662C56.2575 42.8209 57.2744 42.7225 57.2744 43.2898C57.2744 43.4747 56.793 43.4051 56.6876 43.4051C56.3805 43.4051 56.3505 43.5918 56.136 43.751C55.8418 43.9694 55.6932 43.9857 55.5491 44.3788C55.4453 44.6622 55.662 45.279 55.2088 45.2499C55.0597 45.2404 55.0628 44.6865 55.021 44.5325C54.9226 44.1702 54.9117 44.1334 54.6806 43.8663C54.2534 43.3726 52.8262 43.6357 52.8262 43.6357C52.8262 43.6357 53.3491 43.4051 53.6243 43.4051C53.9074 43.4051 54.2527 43.4567 54.528 43.3795Z" fill="white" fill-opacity="0.9"/>
<path d="M55.2088 40.0613C55.2484 41.1877 56.0154 42.962 54.528 43.3795C54.2527 43.4567 53.9074 43.4051 53.6243 43.4051C53.3491 43.4051 52.8262 43.6357 52.8262 43.6357C52.8262 43.6357 54.2534 43.3726 54.6806 43.8663C54.9117 44.1334 54.9226 44.1702 55.021 44.5325C55.0628 44.6865 55.0597 45.2404 55.2088 45.2499C55.662 45.279 55.4453 44.6622 55.5491 44.3788C55.6932 43.9857 55.8418 43.9694 56.136 43.751C56.3505 43.5918 56.3805 43.4051 56.6876 43.4051C56.793 43.4051 57.2744 43.4747 57.2744 43.2898C57.2744 42.7225 56.2575 42.8209 55.9482 42.662C55.5874 42.4767 55.4199 42.2519 55.2088 41.9061" stroke="white" stroke-opacity="0.9" stroke-linecap="round"/>
</g>
<defs>
<clipPath id="clip0_121_143">
<rect width="96" height="88" fill="white"/>
</clipPath>
</defs>
</svg>
