<svg width="96" height="88" viewBox="0 0 96 88" fill="none" xmlns="http://www.w3.org/2000/svg">
<g clip-path="url(#clip0_121_141)">
<path d="M86.0288 68.4506C88.8966 65.7763 92.608 63.1197 92.9284 58.8296C95.1133 56.7922 95.6538 49.9042 95.357 47.004C94.6518 40.1139 93.349 33.0382 91.5925 26.3171C88.7789 15.5517 71.8493 1.76131 60.8167 0.83743C48.1746 -0.221227 30.7026 -0.256225 20.2904 7.82142C17.3862 10.0744 15.0041 14.3286 12.5533 17.161C10.3821 19.6702 8.88047 22.4746 6.42091 24.7681C3.23888 27.7354 2.09109 33.0369 0.669703 36.9773C-1.34726 42.5689 4.54966 46.0622 6.00574 51.9495C7.24231 56.9492 7.55632 63.9447 10.8496 67.3806C15.487 72.2187 21.2627 75.9792 26.4462 80.2209C28.7551 82.1102 31.323 82.4115 33.7108 84.1878C35.2686 85.3467 37.3848 87.0556 39.2697 87.6207C40.3781 87.953 42.0579 87.1745 43.138 87.0824C45.8561 86.8506 48.6046 87.1239 51.3299 87.2337C55.3286 87.3948 59.6574 87.5275 63.5746 86.6747C67.5886 85.8008 71.2097 83.332 74.1324 80.6065C78.2836 76.7355 81.8627 72.3356 86.0288 68.4506Z" fill="#DE3C76" fill-opacity="0.4"/>
<path d="M58.4118 34.9929C54.5189 33.3208 45.6026 27.8856 43.2628 34.0167L41.8516 35.6148C40.9916 36.1712 40.3246 37.0244 39.4604 37.6898C38.3121 38.574 38.903 42.5332 38.903 43.9156C38.903 49.0121 48.2211 55.3775 52.3818 52.3793C55.7465 49.9546 58.2856 49.2512 60.5907 45.1493C62.2305 42.2313 61.5194 36.3277 58.4118 34.9929Z" fill="white" fill-opacity="0.9"/>
<path d="M47.6348 19C47.6348 21.292 48.0869 23.4182 48.0869 25.6584" stroke="white" stroke-opacity="0.9" stroke-width="5" stroke-linecap="round"/>
<path d="M67.5293 39.2661C69.5188 39.2661 71.0597 38.4886 72.9549 38.1564" stroke="white" stroke-opacity="0.9" stroke-width="5" stroke-linecap="round"/>
<path d="M51.252 60.351C51.252 62.8042 51.5386 64.1808 52.1562 66.4545" stroke="white" stroke-opacity="0.9" stroke-width="5" stroke-linecap="round"/>
<path d="M25.5 45.9244H32.282" stroke="white" stroke-opacity="0.9" stroke-width="5" stroke-linecap="round"/>
<path d="M32.2628 25.9493C31.9303 27.9895 33.9706 29.7099 34.9756 30.9431" stroke="white" stroke-opacity="0.9" stroke-width="5" stroke-linecap="round"/>
<path d="M66.1727 24.2847C64.5816 26.2373 63.0019 28.1741 61.1992 29.8333" stroke="white" stroke-opacity="0.9" stroke-width="5" stroke-linecap="round"/>
<path d="M63.0078 53.6926C64.8759 53.82 66.6596 54.3327 67.5291 56.467" stroke="white" stroke-opacity="0.9" stroke-width="5" stroke-linecap="round"/>
<path d="M39.497 57.5767C39.3163 59.7949 38.0516 62.0067 37.6885 64.2351" stroke="white" stroke-opacity="0.9" stroke-width="5" stroke-linecap="round"/>
</g>
<defs>
<clipPath id="clip0_121_141">
<rect width="96" height="88" fill="white"/>
</clipPath>
</defs>
</svg>
